<svg height="512" viewBox="0 0 61 61" width="512" xmlns="http://www.w3.org/2000/svg"><g id="012---Explore-Forrest"><path id="Shape" d="m36 0c-20.4 0-32.125 23.21-20.267 39.612l-13.563 13.561c-1.05915576.9999145-1.4910467 2.4965322-1.12747812 3.9070136.36356859 1.4104814 1.46511832 2.5118363 2.87566398 2.8751555 1.41054565.3633191 2.90708701-.0688365 3.90681414-1.1281691l13.563-13.561c16.405 11.862 39.612.134 39.612-20.266-.0154309-13.800722-11.199278-24.9845691-25-25zm-29.595 57.419c-.78923281.7509845-2.02876719.7509845-2.818 0-.77595063-.7833766-.77595063-2.0456234 0-2.829l5.674-5.673 2.827 2.826zm7.095-7.093-2.828-2.826 6.306-6.3c.8646795 1.0137027 1.8082973 1.9573205 2.822 2.822zm22.5-2.326c-12.7025492 0-23-10.2974508-23-23s10.2974508-23 23-23 23 10.2974508 23 23c-.0143284 12.6966095-10.3033905 22.9856716-23 23z"/><path id="Shape" d="m49.287 10.031c-.3868152.3940795-.3809953 1.0270991.013 1.414 7.0204634 6.8655939 7.6345641 17.9562956 1.415 25.555h-7.715v-6h4.52c.5745968-.0056972 1.0954415-.3391514 1.3411194-.8586091s.1730072-1.1336156-.1871194-1.5813909l-2.82-3.56h.584c.5971438-.008245 1.132509-.3699294 1.3630336-.9208441.2305246-.5509148.1122862-1.1860928-.3010336-1.6171559l-2.423-2.562c.4589004-.1862786.7971796-.5858841.9051463-1.0692396.1079666-.4833555-.0281253-.9889209-.3641463-1.3527604l-4.556-5.017c-.2821364-.2908048-.6709719-.453509-1.0761362-.4502979-.4051642.0032111-.7913721.1720578-1.0688638.4672979l-2.917 3.213-2.94-3.233c-.2840152-.2837212-.6699074-.4417557-1.0713464-.4387487-.401439.0030071-.7849206.1668047-1.0646536.4547487l-4.534 4.984c-.3436464.362868-.4857863.8721033-.3797458 1.3604899.1060405.4883865.446561.8928246.9097458 1.0805101l-2.427 2.559c-.4159469.4306304-.5359789 1.067366-.3053661 1.6198804.2306128.5525143.7676981.9149771 1.3663661.9221196h.584l-2.814 3.56c-.3595967.4470716-.4326703 1.0601027-.1882384 1.5791748.2444319.519072.763544.8532419 1.3372384.8608252h4.527v6h-7.715c-5.8038547-7.1024518-5.7013851-17.3382649.2434961-24.3231013 5.9448812-6.98483641 16.0327326-8.72196684 23.9715039-4.1278987.3099891.19705937.703062.20830772 1.0238128.02929788.3207509-.17900983.5175425-.51945937.5125711-.88674796-.0049714-.36728858-.2109055-.70228706-.5363839-.87254992-6.498947-3.73154865-14.4926437-3.72255118-20.983174.02361805-6.4905303 3.74616925-10.4969936 10.66335945-10.516826 18.15738195.0412574 4.985582 1.8232914 9.8000449 5.038 13.611 8 9.729 23.743 9.946 31.924 0 7.1829959-8.3736784 6.6307765-20.8856928-1.262-28.594-.3942355-.38587515-1.0264877-.3796108-1.413.014zm-8.287 26.969h-2v-6h2zm-6 0v-6h2v6zm5-22.737 3.392 3.737h-.544c-.3996659-.0001156-.7610184.2377506-.9189269.6048987-.1579085.3671482-.0820433.7930595.1929269 1.0831013l3.137 3.312h-1.471c-.3843087-.0016127-.7355404.2171555-.9035612.5627923-.1680209.3456368-.1231.7569825.1155612 1.0582077l3.47 4.379h-5.564c-.128-.362 0-.147-3.049-4h.584c.5983055-.0079265 1.1346702-.3706793 1.3647771-.9230227.2301068-.5523433.1099348-1.1886101-.3057771-1.6189773l-2.425-2.558c.4596083-.186218.798687-.5859739.9074244-1.0698056.1087375-.4838318-.0266902-.9902293-.3624244-1.3551944l-.269-.3zm-11.012 10.357c.2380438-.3012367.2826025-.7121634.1146615-1.057423-.1679411-.3452596-.5187257-.5638835-.9026615-.562577h-1.464l3.141-3.312c.2748454-.28991.3507778-.7155818.1931246-1.0826421-.1576533-.3670602-.5186403-.6050741-.9181246-.6053579h-.552l3.4-3.736 3.4 3.736h-.552c-.3996659-.0001156-.7610184.2377506-.9189269.6048987-.1579085.3671482-.0820433.7930595.1929269 1.0831013l3.138 3.312h-1.468c-.3833944-.0001527-.733125.2189091-.9003115.5639309-.1671864.3450217-.1223931.7552571.1153115 1.0560691l3.463 4.38h-12.945zm2.012 6.38h2v6h-2zm-7.8 8h25.6c-7.2308748 6.6676272-18.3691252 6.6676272-25.6 0z"/></g></svg>